<?xml version="1.0" encoding="utf-8"?>
<!DOCTYPE svg PUBLIC "-//W3C//DTD SVG 20010904//EN" "http://www.w3.org/TR/2001/REC-SVG-20010904/DTD/svg10.dtd">
<svg version="1.0" width="450pt" height="450pt" viewBox="0 0 450 450" preserveAspectRatio="xMidYMid meet" xmlns="http://www.w3.org/2000/svg">
  <g transform="translate(0,450)scale(.075,.075)">
    <path id="path1" d="M 3120 -5775 l 224 224 -219 -96 c -121 -52 -270 -117 -332 -143 l -111 -47 -56 56 -56 56 405 405 405 405 60 -60 c 33 -33 60 -62 60 -65 0 -3 -103 -109 -230 -235 -126 -126 -228 -231 -226 -233 2 -2 102 39 222 91 121 52 266 115 324 140 l 105 45 58 -56 57 -57 -327 -327 -328 -328 -130 0 -130 0 225 225 z M 2345 -5478 c -71 26 -150 102 -182 176 -23 53 -22 156 4 212 31 70 126 181 295 347 218 213 298 261 419 250 72 -6 123 -33 182 -96 77 -83 101 -168 73 -263 -24 -84 -67 -140 -256 -331 -188 -192 -279 -268 -349 -292 -51 -17 -142 -19 -186 -3 z m 134 177 c 76 39 372 329 459 450 43 59 43 108 3 153 -40 44 -89 44 -157 -2 -68 -46 -395 -374 -433 -434 -42 -68 -41 -108 3 -152 39 -39 69 -43 125 -15 z M 3910 -4965 l -135 135 325 325 325 325 137 -137 138 -138 -47 -47 -47 -48 -86 85 -85 85 -93 -93 -92 -92 72 -73 73 -72 -48 -47 -47 -48 -73 73 -72 72 -93 -93 -92 -92 86 -84 86 -83 -43 -44 c -24 -24 -46 -44 -49 -44 -3 0 -66 61 -140 135 z M 1845 -5000 l -60 60 405 405 405 405 63 -63 62 -63 -401 -402 c -220 -221 -404 -402 -408 -402 -3 0 -33 27 -66 60 z M 1550 -4694 c -144 82 -209 226 -160 357 27 71 120 175 195 218 75 43 123 40 274 -21 68 -28 134 -50 148 -50 39 0 76 25 136 90 49 52 57 67 57 99 0 44 -27 84 -72 107 -38 20 -71 12 -120 -27 l -37 -29 -58 61 c -32 33 -59 65 -61 69 -6 15 117 99 161 111 86 23 173 -8 264 -94 102 -96 132 -210 83 -312 -14 -29 -57 -84 -104 -131 -150 -150 -210 -161 -419 -75 -135 55 -146 56 -200 18 -86 -60 -112 -154 -58 -208 41 -41 93 -40 145 2 l 38 32 64 -64 65 -64 -38 -33 c -97 -86 -213 -107 -303 -56 z M 3615 -4670 l -50 50 190 190 190 191 -265 -115 -265 -115 -48 47 -47 47 325 325 325 325 52 -53 53 -52 -190 -190 -190 -191 70 30 c 39 16 158 68 265 114 l 195 85 48 -46 47 -47 -322 -322 c -178 -178 -325 -323 -328 -323 -3 0 -28 23 -55 50 z M 4745 -4200 l -100 100 385 386 c 212 213 378 384 370 381 -8 -3 -56 -23 -105 -45 -88 -39 -456 -199 -788 -342 l -169 -73 -91 91 -92 92 653 652 652 653 102 -103 103 -102 -385 -385 -385 -386 80 34 c 101 43 860 371 937 404 86 38 88 35 88 -156 l 0 -156 -573 -573 c -314 -314 -574 -572 -577 -572 -3 0 -50 45 -105 100 z M 1063 -4201 c -58 27 -130 96 -161 156 -36 68 -37 169 -3 235 32 60 125 156 186 191 74 43 122 39 262 -17 63 -25 130 -48 147 -51 45 -7 82 14 149 87 49 52 57 67 57 99 0 44 -27 84 -72 107 -37 19 -71 12 -119 -26 l -36 -29 -64 65 -64 65 35 30 c 74 64 120 84 190 84 79 -1 130 -25 207 -98 67 -63 107 -143 107 -211 0 -78 -33 -137 -127 -231 -151 -151 -210 -162 -420 -76 -139 57 -147 58 -209 9 -81 -64 -102 -146 -49 -199 44 -44 101 -39 159 14 l 22 21 66 -65 65 -64 -38 -33 c -91 -81 -199 -104 -290 -63 z M 3057 -4112 c -26 26 -47 51 -47 54 0 7 447 751 474 790 11 16 18 12 66 -37 l 53 -54 -51 -78 -52 -78 75 -74 74 -75 78 52 78 52 52 -52 c 42 -41 50 -55 40 -64 -10 -9 -768 -473 -787 -482 -3 -1 -27 19 -53 46 z m 324 273 l 151 101 -53 54 c -29 29 -54 52 -55 51 -29 -40 -203 -307 -199 -307 3 0 73 45 156 101 z M 2735 -3790 l -49 50 134 135 135 135 -63 62 -62 63 -135 -135 -135 -135 -52 53 -53 52 325 325 325 325 52 -52 53 -53 -142 -142 -143 -143 63 -62 62 -63 143 143 143 142 47 -48 c 26 -26 47 -52 47 -57 0 -10 -631 -645 -641 -645 -2 0 -27 23 -54 50 z M 587 -3742 c -31 32 -57 62 -57 67 0 6 180 190 400 410 l 400 399 65 -64 65 -65 -402 -402 c -222 -222 -405 -403 -408 -403 -3 0 -31 26 -63 58 z M 328 -3482 l -56 57 114 245 c 63 135 123 264 133 287 l 19 41 -31 -13 c -18 -8 -138 -63 -267 -123 l -235 -109 -3 126 -3 125 323 323 c 178 178 328 323 333 323 6 0 37 -27 70 -60 l 60 -60 -245 -246 -245 -246 210 106 210 105 37 -36 37 -36 -109 -215 -108 -215 249 249 249 249 60 -60 c 33 -33 60 -64 60 -70 0 -10 -790 -805 -800 -805 -3 0 -31 26 -62 58 z M 2285 -3320 c -22 11 -86 66 -142 122 l -103 103 325 325 325 325 50 -50 50 -49 -127 -128 -128 -128 52 -52 c 56 -57 92 -125 93 -173 0 -117 -200 -315 -320 -315 -19 0 -53 9 -75 20 z m 108 141 c 32 16 106 90 123 121 24 46 17 71 -31 118 l -45 44 -100 -99 c -55 -55 -100 -104 -100 -110 0 -18 84 -84 108 -85 13 0 33 5 45 11 z M 3835 -3213 c -28 10 -73 31 -100 48 -52 30 -445 410 -445 429 0 6 291 302 648 659 l 647 647 105 -105 105 -105 -268 -268 -267 -267 56 -56 55 -56 197 102 c 108 56 267 138 353 183 l 155 81 109 -109 109 -109 -387 -192 c -383 -189 -387 -191 -380 -218 13 -46 7 -144 -11 -198 -50 -149 -264 -373 -430 -449 -78 -36 -179 -42 -251 -17 z m 164 305 c 59 28 194 164 226 227 46 93 32 140 -78 249 l -72 72 -200 -200 -200 -201 80 -75 c 44 -42 89 -80 100 -84 36 -16 98 -10 144 12 z M 1712 -3107 l -41 42 25 85 c 15 47 29 88 33 93 4 4 21 -8 39 -26 l 32 -33 -23 -102 -23 -102 -42 43 z M 1812 -2867 l -132 133 320 319 c 176 176 324 321 328 323 4 1 67 -58 141 -132 l 133 -133 -49 -46 -48 -46 -85 84 -85 85 -93 -93 -92 -92 70 -70 c 38 -38 70 -74 70 -80 0 -6 -19 -30 -43 -53 l -43 -42 -74 75 -75 75 -87 -87 c -49 -48 -88 -92 -88 -98 1 -5 37 -46 80 -90 l 80 -80 -42 -42 c -23 -24 -45 -43 -48 -43 -3 0 -65 60 -138 133 z M 1445 -2500 l -160 160 47 47 46 46 48 -51 c 27 -29 53 -52 59 -52 6 0 134 124 285 275 l 274 275 51 -50 50 -50 -279 -279 -279 -279 51 -53 c 29 -29 52 -56 52 -59 0 -3 -19 -25 -43 -48 l -42 -42 -160 160 z M 2832 -2287 l -272 272 653 653 652 652 273 -273 272 -272 -92 -93 -93 -92 -170 170 -170 170 -190 -190 -190 -190 148 -148 147 -147 -92 -93 -93 -92 -147 147 -148 148 -184 -184 -184 -184 170 -170 171 -169 -94 -94 -94 -94 -273 273 z M 1167 -2198 c -48 13 -135 91 -158 143 -24 52 -24 129 1 183 25 54 112 139 169 165 54 24 91 19 199 -27 121 -52 142 -51 207 6 81 71 90 129 29 177 -36 28 -70 27 -112 -5 l -34 -27 -52 52 -51 52 35 31 c 102 88 201 88 304 -2 85 -75 119 -187 80 -263 -27 -53 -99 -131 -159 -172 -78 -54 -124 -53 -263 4 -121 49 -138 47 -197 -22 -44 -51 -46 -93 -9 -131 34 -33 61 -33 109 0 l 38 26 51 -52 51 -51 -30 -25 c -70 -59 -142 -80 -208 -62 z M 2253 -1631 c -90 31 -162 88 -363 287 l -195 194 575 575 575 575 156 0 155 0 110 -113 c 191 -195 229 -260 229 -392 0 -70 -4 -89 -32 -149 -65 -135 -251 -330 -370 -387 -69 -33 -154 -43 -216 -26 -28 8 -28 8 -20 -30 26 -125 -9 -217 -135 -346 -176 -181 -321 -239 -469 -188 z m 181 320 c 46 29 138 129 159 174 39 80 17 145 -80 248 l -69 72 -178 -178 -177 -178 57 -54 c 135 -128 190 -144 288 -84 z m 515 523 c 59 28 191 160 219 219 46 95 23 165 -91 277 l -54 53 -202 -202 -203 -202 68 -68 c 37 -38 82 -75 98 -83 45 -22 112 -20 165 6 z " />
  </g>
</svg>