<?xml version="1.0" encoding="utf-8"?>
<!-- Generator: Adobe Illustrator 15.0.0, SVG Export Plug-In . SVG Version: 6.00 Build 0)  -->
<!DOCTYPE svg PUBLIC "-//W3C//DTD SVG 1.1//EN" "http://www.w3.org/Graphics/SVG/1.1/DTD/svg11.dtd">
<svg version="1.1" id="svg2" xmlns:svg="http://www.w3.org/2000/svg"
	 xmlns="http://www.w3.org/2000/svg" xmlns:xlink="http://www.w3.org/1999/xlink" x="0px" y="0px" width="557.977px"
	 height="557.781px" viewBox="0 0 557.977 557.781" enable-background="new 0 0 557.977 557.781" xml:space="preserve">
<polygon stroke="#000000" stroke-width="2" stroke-miterlimit="10" points="515.656,215.857 463.376,215.857 459.281,220.107 
	459.281,204.295 353.656,98.67 337.845,98.67 342.095,94.576 342.095,42.295 305.126,5.482 253.001,5.482 216.032,42.295 
	216.032,94.576 220.126,98.67 204.47,98.67 98.845,204.295 98.845,220.107 94.751,215.857 42.47,215.857 5.501,252.826 
	5.501,304.951 42.47,341.92 94.751,341.92 98.845,337.67 98.845,353.482 144.001,398.639 164.47,378.201 127.845,341.576 
	127.845,302.264 93.345,302.264 82.657,312.951 54.564,312.951 34.47,293.014 34.47,264.764 54.564,244.826 82.657,244.826 
	93.345,255.514 127.845,255.514 127.845,216.201 164.47,179.576 161.782,176.92 124.095,214.607 124.095,251.764 94.939,251.764 
	84.251,241.107 52.97,241.107 30.751,263.139 30.751,294.639 52.97,316.67 84.251,316.67 94.939,306.014 124.095,306.014 
	124.095,342.982 159.126,378.201 144.001,393.326 102.595,351.889 102.595,328.576 93.157,338.014 44.064,338.014 9.407,303.326 
	9.407,254.451 44.064,219.576 93.157,219.576 102.595,229.201 102.595,205.889 205.907,102.576 229.376,102.576 219.751,92.982 
	219.751,43.889 254.439,9.232 303.501,9.232 338.189,43.889 338.189,92.982 328.751,102.576 352.064,102.576 402.376,152.92 
	387.251,168.014 343.156,123.92 306.189,123.92 306.189,94.764 316.845,84.076 316.845,52.795 294.626,30.732 263.314,30.732 
	241.282,52.795 241.282,84.076 251.939,94.764 251.939,123.92 214.782,123.92 177.095,161.795 179.751,164.451 216.376,127.67 
	255.689,127.67 255.689,93.326 245.001,82.482 245.001,54.389 264.939,34.482 293.189,34.482 313.126,54.389 313.126,82.482 
	302.281,93.326 302.281,127.67 341.751,127.67 430.281,216.201 430.281,255.514 464.626,255.514 475.47,244.826 503.564,244.826 
	523.47,264.764 523.47,293.014 503.564,312.951 475.47,312.951 464.626,302.264 430.281,302.264 430.281,341.576 393.501,378.201 
	396.156,380.857 434.031,342.982 434.031,306.014 463.001,306.014 473.876,316.67 505.156,316.67 527.22,294.639 527.22,263.139 
	505.156,241.107 473.876,241.107 463.001,251.764 434.031,251.764 434.031,214.607 389.939,170.701 405.031,155.576 
	455.376,205.889 455.376,229.201 464.97,219.576 514.064,219.576 548.72,254.451 548.72,303.326 514.064,338.014 464.97,338.014 
	455.376,328.576 455.376,351.889 352.064,455.201 328.751,455.201 338.189,464.795 338.189,513.889 303.501,548.545 
	254.439,548.545 219.751,513.889 219.751,464.795 229.376,455.201 205.907,455.201 155.564,404.857 170.689,389.764 
	214.782,433.857 251.939,433.857 251.939,462.826 241.282,473.701 241.282,504.982 263.314,527.045 294.626,527.045 
	316.845,504.982 316.845,473.701 306.189,462.826 306.189,433.857 343.156,433.857 381.031,395.982 378.376,393.326 
	341.751,430.107 302.281,430.107 302.281,464.451 313.126,475.107 313.126,503.389 293.189,523.295 264.939,523.295 
	245.001,503.389 245.001,475.107 255.689,464.451 255.689,430.107 216.376,430.107 173.345,387.076 188.657,371.982 
	225.282,408.607 277.189,408.607 277.189,467.826 280.939,467.826 280.939,408.607 332.845,408.607 408.781,332.67 408.781,280.764 
	468.001,280.764 468.001,277.014 408.781,277.014 408.781,225.107 378.376,194.701 375.72,197.357 405.031,226.701 405.031,331.076 
	331.251,404.857 226.876,404.857 191.314,369.295 206.439,354.201 235.751,383.545 322.376,383.545 345.47,360.42 342.814,357.764 
	320.751,379.607 237.189,379.607 209.095,351.514 224.22,336.42 246.064,358.295 311.876,358.295 358.47,311.701 358.47,246.076 
	336.406,224.045 351.689,208.92 379.781,237.201 379.781,320.576 357.939,342.639 360.595,345.295 383.531,322.201 383.531,235.576 
	322.376,174.232 235.751,174.232 206.439,203.576 191.314,188.482 226.876,152.92 331.251,152.92 360.595,182.232 363.251,179.576 
	332.845,149.17 280.939,149.17 280.939,89.951 277.189,89.951 277.189,149.17 225.282,149.17 149.157,225.107 149.157,277.014 
	89.97,277.014 89.97,280.764 149.157,280.764 149.157,332.67 179.751,363.076 182.407,360.42 153.095,331.076 153.095,226.701 
	188.657,191.139 203.751,206.264 174.407,235.576 174.407,322.201 197.532,345.295 200.189,342.639 178.157,320.576 
	178.157,237.201 237.189,178.17 320.751,178.17 349.031,206.264 333.751,221.357 311.876,199.482 246.064,199.482 199.657,246.076 
	199.657,311.701 215.314,327.514 217.97,324.67 203.407,310.264 203.407,247.514 224.22,226.701 239.314,241.982 224.907,256.389 
	224.907,301.389 233.095,309.576 235.751,306.889 228.657,299.795 228.657,257.982 258.157,228.482 299.97,228.482 307.064,235.576 
	309.751,232.92 301.564,224.732 256.564,224.732 242.001,239.326 226.876,224.045 247.689,203.232 310.281,203.232 354.531,247.514 
	354.531,310.264 333.751,331.076 318.626,315.795 333.22,301.389 333.22,256.389 324.845,248.201 322.189,250.889 329.47,257.982 
	329.47,299.795 299.97,329.295 261.564,329.295 257.814,333.045 301.564,333.045 315.97,318.451 331.064,333.732 310.281,354.545 
	247.689,354.545 226.876,333.732 253.532,306.889 241.282,294.639 241.282,263.139 263.314,241.107 294.626,241.107 
	316.845,263.139 316.845,294.639 294.626,316.67 263.314,316.67 259.939,313.107 239.314,333.732 251.407,345.67 306.72,345.67 
	318.626,333.732 315.97,331.076 305.126,341.92 253.001,341.92 244.657,333.732 259.939,318.451 261.72,320.42 296.22,320.42 
	320.595,296.045 320.595,261.732 309.751,250.889 324.845,235.576 342.095,252.826 342.095,304.951 331.064,315.795 
	333.751,318.451 345.845,306.545 345.845,251.232 306.72,212.107 251.407,212.107 239.314,224.045 242.001,226.701 253.001,215.857 
	305.126,215.857 322.189,232.92 307.064,248.201 296.22,237.357 261.72,237.357 237.376,261.732 237.376,296.045 248.22,306.889 
	233.095,322.014 216.032,304.951 216.032,252.826 226.876,241.982 224.22,239.326 212.282,251.232 212.282,306.545 230.439,324.67 
	215.314,339.982 190.782,315.42 190.782,242.357 242.532,190.607 315.595,190.607 333.751,208.92 336.406,206.264 317.22,186.857 
	240.907,186.857 187.032,240.732 187.032,317.045 212.657,342.639 197.532,357.764 165.532,325.92 165.532,231.857 191.314,206.264 
	188.657,203.576 161.782,230.42 161.782,327.357 194.876,360.42 179.751,375.545 140.47,336.232 140.47,289.639 88.189,289.639 
	77.501,300.326 59.72,300.326 47.095,287.701 47.095,270.076 59.72,257.451 77.501,257.451 88.189,268.139 140.47,268.139 
	140.47,221.545 221.532,140.295 268.314,140.295 268.314,88.014 257.626,77.326 257.626,59.545 270.095,47.107 287.876,47.107 
	300.501,59.545 300.501,77.326 289.814,88.014 289.814,140.295 336.406,140.295 375.72,179.576 360.595,194.701 327.531,161.795 
	230.439,161.795 203.751,188.482 206.439,191.139 232.032,165.545 325.906,165.545 392.406,231.857 392.406,325.92 360.595,357.764 
	345.47,342.639 371.095,317.045 371.095,240.732 351.689,221.357 349.031,224.045 367.156,242.357 367.156,315.42 315.595,366.982 
	242.532,366.982 224.22,348.857 221.532,351.514 240.907,370.92 317.22,370.92 342.814,345.295 357.939,360.42 325.906,392.232 
	232.032,392.232 206.439,366.639 203.751,369.295 230.439,395.982 327.531,395.982 396.156,327.357 396.156,230.42 363.251,197.357 
	378.376,182.232 417.656,221.545 417.656,268.139 469.939,268.139 480.626,257.451 498.406,257.451 510.845,270.076 
	510.845,287.701 498.406,300.326 480.626,300.326 469.939,289.639 417.656,289.639 417.656,336.232 336.406,417.482 
	289.814,417.482 289.814,469.764 300.501,480.451 300.501,498.232 287.876,510.67 270.095,510.67 257.626,498.232 257.626,480.451 
	268.314,469.764 268.314,417.482 221.532,417.482 188.657,384.42 185.97,387.076 220.126,421.232 264.564,421.232 264.564,467.826 
	253.907,478.857 253.907,499.639 268.657,514.42 289.47,514.42 304.22,499.639 304.22,478.857 293.564,467.826 293.564,421.232 
	338.001,421.232 378.376,380.857 393.501,395.982 346.906,442.732 314.906,442.732 314.906,459.295 325.564,469.951 
	325.564,508.545 298.345,535.92 259.782,535.92 232.376,508.545 232.376,469.951 243.064,459.295 243.064,442.732 211.22,442.732 
	170.689,402.201 168.001,404.857 209.626,446.482 239.314,446.482 239.314,457.67 228.657,468.357 228.657,510.139 258.157,539.67 
	299.97,539.67 329.47,510.139 329.47,468.357 318.814,457.67 318.814,446.482 348.501,446.482 446.656,348.326 446.656,318.639 
	457.845,318.639 468.531,329.295 510.314,329.295 539.845,299.795 539.845,257.982 510.314,228.482 468.531,228.482 
	457.845,239.139 446.656,239.139 446.656,209.451 405.031,168.014 402.376,170.701 442.906,211.045 442.906,243.045 459.47,243.045 
	470.126,232.201 508.72,232.201 536.095,259.607 536.095,298.17 508.72,325.576 470.126,325.576 459.47,314.732 442.906,314.732 
	442.906,346.732 396.156,393.326 381.031,378.201 421.406,337.826 421.406,293.389 468.345,293.389 479.031,304.045 
	499.814,304.045 514.595,289.295 514.595,268.482 499.814,253.732 479.031,253.732 468.345,264.389 421.406,264.389 
	421.406,219.951 338.001,136.545 293.564,136.545 293.564,89.607 304.22,78.92 304.22,58.139 289.47,43.357 268.657,43.357 
	253.907,58.139 253.907,78.92 264.564,89.607 264.564,136.545 220.126,136.545 179.751,176.92 164.47,161.795 211.22,115.045 
	243.064,115.045 243.064,98.482 232.376,87.826 232.376,49.232 259.782,21.857 298.345,21.857 325.564,49.232 325.564,87.826 
	314.906,98.482 314.906,115.045 346.906,115.045 387.251,155.576 389.939,152.92 348.501,111.295 318.814,111.295 318.814,100.107 
	329.47,89.42 329.47,47.639 299.97,18.107 258.157,18.107 228.657,47.639 228.657,89.42 239.314,100.107 239.314,111.295 
	209.626,111.295 111.47,209.451 111.47,239.139 100.095,239.139 89.407,228.482 47.626,228.482 18.126,257.982 18.126,299.795 
	47.626,329.295 89.407,329.295 100.095,318.639 111.47,318.639 111.47,348.326 144.001,380.857 146.689,378.201 115.22,346.732 
	115.22,314.732 98.657,314.732 87.814,325.576 49.22,325.576 22.032,298.17 22.032,259.607 49.22,232.201 87.814,232.201 
	98.657,243.045 115.22,243.045 115.22,211.045 161.782,164.451 177.095,179.576 136.532,219.951 136.532,264.389 89.782,264.389 
	79.095,253.732 58.126,253.732 43.376,268.482 43.376,289.295 58.126,304.045 79.095,304.045 89.782,293.389 136.532,293.389 
	136.532,337.826 177.095,378.201 150.22,404.857 204.47,459.107 220.126,459.107 216.032,463.201 216.032,515.295 253.001,552.295 
	305.126,552.295 342.095,515.295 342.095,463.201 337.845,459.107 353.656,459.107 459.281,353.482 459.281,337.67 463.376,341.92 
	515.656,341.92 552.47,304.951 552.47,252.826 "/>
</svg>
